<svg xmlns="http://www.w3.org/2000/svg" viewBox="0 0 800 480" role="img" aria-label="Item placeholder">
  <defs>
    <radialGradient id="li-glow" cx="50%" cy="50%" r="60%">
      <stop offset="0%" stop-color="#FCAF17" stop-opacity="0.35"/>
      <stop offset="100%" stop-color="#000" stop-opacity="0"/>
    </radialGradient>
  </defs>
  <rect width="800" height="480" fill="#050505"/>
  <rect width="800" height="480" fill="url(#li-glow)"/>
  <g transform="translate(400 240)">
    <polygon points="0,-120 130,-60 0,-10 -130,-60" fill="#FFE17A"/>
    <polygon points="-130,-60 -130,80 0,140 0,-10" fill="#FCAF17"/>
    <polygon points="130,-60 130,80 0,140 0,-10" fill="#8A5800"/>
    <line x1="-130" y1="-10" x2="0" y2="40" stroke="#000" stroke-width="3" opacity="0.45"/>
    <line x1="130" y1="-10" x2="0" y2="40" stroke="#000" stroke-width="3" opacity="0.45"/>
    <line x1="0" y1="-10" x2="0" y2="140" stroke="#000" stroke-width="3" opacity="0.35"/>
    <g transform="translate(0 14)">
      <rect x="-18" y="-12" width="36" height="30" rx="3" fill="#000"/>
      <path d="M -12 -12 v -16 a 12 12 0 0 1 24 0 v 16" fill="none" stroke="#000" stroke-width="4"/>
    </g>
  </g>
  <text x="400" y="420" text-anchor="middle" fill="#FCAF17" font-family="Poppins, system-ui, sans-serif" font-size="32" font-weight="700" letter-spacing="6">ITEM &amp; BUNDLE</text>
</svg>
