<svg xmlns="http://www.w3.org/2000/svg" viewBox="0 0 1200 750" preserveAspectRatio="xMidYMid slice">
  <defs>
    <radialGradient id="item-bg" cx="50%" cy="50%" r="80%">
      <stop offset="0%" stop-color="#2B4D8A"/>
      <stop offset="60%" stop-color="#0F1E3D"/>
      <stop offset="100%" stop-color="#040A1A"/>
    </radialGradient>
  </defs>
  <rect width="1200" height="750" fill="url(#item-bg)"/>
  <!-- Poke balls -->
  <g transform="translate(380 320)">
    <circle r="120" fill="#FFFFFF"/>
    <path d="M -120 0 A 120 120 0 0 1 120 0 Z" fill="#FF1B1B"/>
    <rect x="-120" y="-8" width="240" height="16" fill="#1A1410"/>
    <circle r="34" fill="#1A1410"/>
    <circle r="20" fill="#FFFFFF"/>
  </g>
  <g transform="translate(820 380)">
    <circle r="130" fill="#FFFFFF"/>
    <path d="M -130 0 A 130 130 0 0 1 130 0 Z" fill="#FFCB05"/>
    <rect x="-130" y="-8" width="260" height="16" fill="#1A1410"/>
    <circle r="36" fill="#1A1410"/>
    <circle r="22" fill="#FFFFFF"/>
    <path d="M -130 0 A 130 130 0 0 1 -50 -120" fill="#FF1B1B"/>
  </g>
  <g transform="translate(600 200)">
    <circle r="80" fill="#FFFFFF"/>
    <path d="M -80 0 A 80 80 0 0 1 80 0 Z" fill="#3B4CCA"/>
    <rect x="-80" y="-5" width="160" height="10" fill="#1A1410"/>
    <circle r="22" fill="#1A1410"/>
    <circle r="13" fill="#FFFFFF"/>
  </g>
  <text x="600" y="690" fill="#FFFFFF" font-family="Inter,system-ui,sans-serif" font-size="50" font-weight="900" text-anchor="middle" letter-spacing="8">ITEM BUNDLES</text>
</svg>
